<svg xmlns="http://www.w3.org/2000/svg" width="888" height="200" viewBox="0 0 888 200">
  <path fill="none" d="M290.804 144.967h306.392v33.795H290.804z"/>
  <path fill="#88C0D0" d="M293.233 144.969h1.35l21.959 31.004h.09v-31.004h.9v32.129h-1.35l-21.959-31.004h-.09v31.004h-.9v-32.129zm38.43 8.459c6.75 0 10.395 5.805 10.395 12.105 0 6.344-3.645 12.104-10.44 12.104-6.75 0-10.395-5.76-10.395-12.104 0-6.301 3.645-12.105 10.44-12.105zm0 23.308c6.165 0 9.495-5.354 9.495-11.203 0-5.76-3.33-11.205-9.495-11.205-6.255 0-9.54 5.445-9.54 11.205.001 5.85 3.285 11.203 9.54 11.203zm15.03.362h-.9v-23.129h.9v5.715h.09c.855-3.42 3.555-6.436 9.09-6.256v.9c-6.345-.314-9.18 4.635-9.18 9.674v13.096zm28.754-32.129h.9v32.129h-.9v-6.48h-.09c-1.17 4.051-4.545 7.02-9.27 7.02-6.12 0-9.855-5.084-9.855-12.059 0-6.48 3.465-12.15 9.855-12.15 4.905 0 8.189 2.836 9.27 7.02h.09v-15.48zm-9.36 9.359c-6.345 0-8.955 5.895-8.955 11.25 0 5.939 2.97 11.158 8.955 11.158 5.939 0 9.359-5.174 9.359-11.158.001-7.154-3.734-11.25-9.359-11.25z"/>
  <path fill="#2E3440" d="M394.302 144.969h2.835v12.914h.09c1.035-2.789 4.14-4.68 7.425-4.68 6.525 0 8.505 3.42 8.505 8.955v14.939h-2.835v-14.49c0-4.004-1.305-7.02-5.895-7.02-4.5 0-7.2 3.42-7.29 7.965v13.545h-2.835v-32.128zm24.255 0h2.834v4.545h-2.834v-4.545zm0 8.91h2.834v23.219h-2.834v-23.219zm27.898 21.328c-.045 6.93-2.7 11.16-10.304 11.16-4.635 0-9.225-2.07-9.63-7.02h2.835c.63 3.42 3.645 4.635 6.795 4.635 5.22 0 7.47-3.105 7.47-8.775v-3.15h-.09c-1.306 2.836-4.05 4.771-7.38 4.771-7.425 0-10.484-5.311-10.484-11.926 0-6.389 3.779-11.699 10.484-11.699 3.375 0 6.255 2.115 7.38 4.68h.09v-4.004h2.834v21.328zm-2.834-9.99c0-4.545-2.115-9.629-7.47-9.629-5.4 0-7.649 4.814-7.649 9.629 0 4.68 2.43 9.225 7.649 9.225 4.904-.001 7.47-4.499 7.47-9.225zm8.19-20.248h2.836v12.914h.09c1.033-2.789 4.139-4.68 7.424-4.68 6.525 0 8.504 3.42 8.504 8.955v14.939h-2.834v-14.49c0-4.004-1.305-7.02-5.895-7.02-4.5 0-7.199 3.42-7.289 7.965v13.545h-2.836v-32.128zm24.253 0h2.836v32.129h-2.836v-32.129zm8.327 0h2.834v4.545h-2.834v-4.545zm0 8.91h2.834v23.219h-2.834v-23.219zm27.898 21.328c-.045 6.93-2.699 11.16-10.305 11.16-4.635 0-9.225-2.07-9.629-7.02h2.834c.631 3.42 3.645 4.635 6.795 4.635 5.221 0 7.471-3.105 7.471-8.775v-3.15h-.09c-1.307 2.836-4.051 4.771-7.381 4.771-7.424 0-10.484-5.311-10.484-11.926 0-6.389 3.779-11.699 10.484-11.699 3.375 0 6.256 2.115 7.381 4.68h.09v-4.004h2.834v21.328zm-2.834-9.99c0-4.545-2.115-9.629-7.471-9.629-5.4 0-7.648 4.814-7.648 9.629 0 4.68 2.43 9.225 7.648 9.225 4.905-.001 7.471-4.499 7.471-9.225zm8.19-20.248h2.836v12.914h.09c1.033-2.789 4.139-4.68 7.424-4.68 6.525 0 8.504 3.42 8.504 8.955v14.939h-2.834v-14.49c0-4.004-1.305-7.02-5.895-7.02-4.5 0-7.199 3.42-7.289 7.965v13.545h-2.836v-32.128zm28.709 8.91h4.725v2.385h-4.725v15.658c0 1.846.27 2.926 2.295 3.061.811 0 1.619-.045 2.43-.135v2.43c-.855 0-1.664.09-2.52.09-3.779 0-5.084-1.26-5.039-5.221v-15.883h-4.051v-2.385h4.051v-6.975h2.834v6.975zm10.484 23.219v-4.77h3.779v4.77h-3.779zm10.891-23.219h2.834v25.379c0 3.465-.945 6.434-4.949 6.434-.676 0-1.305-.09-1.98-.09v-2.34c.449.045 1.08.09 1.529.045 2.205 0 2.566-1.439 2.566-3.375v-26.053zm0-8.91h2.834v4.545h-2.834v-4.545zm22.183 15.703c-.135-3.51-2.834-5.084-6.074-5.084-2.52 0-5.49.99-5.49 4.006 0 2.52 2.881 3.42 4.814 3.914l3.781.855c3.238.494 6.613 2.385 6.613 6.434 0 5.041-4.994 6.975-9.314 6.975-5.398 0-9.09-2.52-9.539-8.189h2.834c.227 3.826 3.061 5.805 6.84 5.805 2.656 0 6.346-1.17 6.346-4.41 0-2.699-2.52-3.6-5.086-4.229l-3.645-.811c-3.689-.99-6.479-2.25-6.479-6.209 0-4.725 4.635-6.525 8.729-6.525 4.635 0 8.324 2.43 8.506 7.469h-2.836z"/>
  <g fill="#2E3440">
    <path d="M466.559 126.967l-43.39-55.545V56.01l48.089 62.172h25.844V30.637h-43.464l-9.397-9.399h62.257v105.729z"/>
    <path d="M421.44 21.238l43.392 55.541v15.41l-48.091-62.168h-25.842v87.545h43.463l9.399 9.401h-62.26V21.238z"/>
  </g>
</svg>
